<svg width="20" height="20" viewBox="0 0 20 20" fill="none" xmlns="http://www.w3.org/2000/svg">
<path fill-rule="evenodd" clip-rule="evenodd" d="M7.2727 10C9.28179 10 10.9091 8.43375 10.9091 6.5C10.9091 4.56625 9.28179 3 7.2727 3C5.26362 3 3.63635 4.56625 3.63635 6.5C3.63635 8.43375 5.26362 10 7.2727 10ZM7.2727 4.75C8.2727 4.75 9.09088 5.5375 9.09088 6.5C9.09088 7.4625 8.2727 8.25 7.2727 8.25C6.2727 8.25 5.45452 7.4625 5.45452 6.5C5.45452 5.5375 6.2727 4.75 7.2727 4.75Z" fill="black"/>
<path d="M16.3636 6.5C16.3636 8.43375 14.7364 10 12.7273 10C12.3 10 11.9 9.9125 11.5182 9.79C12.2727 8.88875 12.7273 7.7425 12.7273 6.5C12.7273 5.2575 12.2727 4.11125 11.5182 3.21C11.9 3.0875 12.3 3 12.7273 3C14.7364 3 16.3636 4.56625 16.3636 6.5Z" fill="black"/>
<path d="M16.3636 14.375C16.3636 12.905 15.4909 11.8025 14.2455 10.9888C16.7546 11.3388 20 12.4675 20 14.375V16.125C20 16.6083 19.593 17 19.0909 17H16.3636V14.375Z" fill="black"/>
<path fill-rule="evenodd" clip-rule="evenodd" d="M0 14.375C0 12.0475 4.84544 10.875 7.27271 10.875C9.69998 10.875 14.5454 12.0475 14.5454 14.375V16.125C14.5454 16.6082 14.1384 17 13.6363 17H0.909089C0.407013 17 0 16.6082 0 16.125V14.375ZM1.81818 14.3837V15.25H12.7272V14.375C12.5454 13.7537 9.72725 12.625 7.27271 12.625C4.81817 12.625 2 13.7537 1.81818 14.3837Z" fill="black"/>
</svg>
