<svg width="244" height="53" viewBox="0 0 244 53" fill="none" xmlns="http://www.w3.org/2000/svg">
<path fill-rule="evenodd" clip-rule="evenodd" d="M26.99 1.09001C42.372 1.09001 53.98 12.45 53.98 26.973C53.98 33.66 51.44 39.556 47.304 44.013L54.486 51.993H42.37L39.88 49.146C36.28 51.628 31.778 52.784 26.99 52.784C11.68 52.784 0 41.496 0 26.974C0 12.017 12.116 1.09001 26.99 1.09001ZM26.99 42.79C29.02 42.79 30.834 42.36 32.576 41.64L22.2 29.993H34.317L39.904 36.393C41.934 33.875 42.878 30.856 42.878 26.973C42.878 18.275 36.278 11.156 26.988 11.156C17.701 11.156 11.174 18.202 11.174 26.973C11.174 35.888 17.701 42.791 26.989 42.791L26.99 42.79ZM61.035 15.76H71.99V36.466C71.99 41.356 75.038 43.152 78.666 43.152C82.293 43.152 85.341 41.355 85.341 36.466V15.758H96.297V37.398C96.296 48.04 88.026 53 78.666 53C69.306 53 61.036 48.04 61.036 37.4V15.757L61.035 15.76ZM103.785 51.995H114.595V15.758H103.785V51.993V51.995ZM102.793 6.30501C102.793 2.74501 105.713 0.00201416 109.153 0.00201416C112.671 0.00201416 115.513 2.74501 115.513 6.30501C115.513 9.79001 112.671 12.535 109.153 12.535C105.713 12.535 102.793 9.79001 102.793 6.30501ZM138.531 25.178H121.791V15.76H157.123L136.973 42.577H156.106V51.995H118.166L138.531 25.178ZM162.201 51.995H173.011V1.88301H162.2V51.993L162.201 51.995ZM179.264 33.805C179.264 22.302 187.536 14.897 198.636 14.897C209.809 14.897 217.136 23.093 217.136 33.231C217.136 33.231 217.136 35.261 216.919 36.915H190.076C190.294 41.229 193.556 43.798 199.724 43.798C206.69 43.798 210.607 41.713 212.711 40.275V49.622C209.301 51.779 205.529 52.93 199.144 52.93C186.881 52.93 179.264 45.525 179.264 34.165V33.805ZM206.254 29.779C206.254 26.544 202.917 23.812 198.636 23.812C194.138 23.812 190.366 26.472 190.148 29.779H206.253H206.254ZM225.426 25.466H220.566V15.76H225.426V1.88201H235.946V15.758H244V25.464H235.946V51.994H225.426V25.464V25.466Z" fill="black"/>
</svg>
