<svg width="60" height="10" viewBox="0 0 60 10" fill="none" xmlns="http://www.w3.org/2000/svg">
<path d="M2.93555 0.46875L4.54688 6.63867L6.15234 0.46875H8.40234V9H6.67383V6.69141L6.83203 3.13477L5.12695 9H3.95508L2.25 3.13477L2.4082 6.69141V9H0.685547V0.46875H2.93555ZM12.2695 9.11719C11.418 9.11719 10.7539 8.86328 10.2773 8.35547C9.80078 7.84766 9.5625 7.12109 9.5625 6.17578V5.67188C9.5625 4.67188 9.78125 3.90039 10.2188 3.35742C10.6562 2.81445 11.2832 2.54297 12.0996 2.54297C12.8965 2.54297 13.4961 2.79883 13.8984 3.31055C14.3008 3.81836 14.5059 4.57227 14.5137 5.57227V6.38672H11.2148C11.2383 6.85547 11.3418 7.19922 11.5254 7.41797C11.709 7.63281 11.9922 7.74023 12.375 7.74023C12.9297 7.74023 13.3926 7.55078 13.7637 7.17188L14.4141 8.17383C14.2109 8.45508 13.916 8.68359 13.5293 8.85938C13.1426 9.03125 12.7227 9.11719 12.2695 9.11719ZM11.2266 5.22656H12.8848V5.07422C12.877 4.69531 12.8145 4.4082 12.6973 4.21289C12.5801 4.01758 12.377 3.91992 12.0879 3.91992C11.7988 3.91992 11.5879 4.02344 11.4551 4.23047C11.3262 4.4375 11.25 4.76953 11.2266 5.22656ZM17.0098 2.66016L17.0566 3.24609C17.4277 2.77734 17.918 2.54297 18.5273 2.54297C19.1602 2.54297 19.6074 2.82812 19.8691 3.39844C20.2324 2.82812 20.75 2.54297 21.4219 2.54297C22.5312 2.54297 23.0996 3.31055 23.127 4.8457V9H21.4688V4.95117C21.4688 4.58398 21.418 4.32227 21.3164 4.16602C21.2148 4.00977 21.043 3.93164 20.8008 3.93164C20.4922 3.93164 20.2617 4.12109 20.1094 4.5L20.1211 4.69922V9H18.4629V4.96289C18.4629 4.59961 18.4141 4.33789 18.3164 4.17773C18.2188 4.01367 18.0449 3.93164 17.7949 3.93164C17.5098 3.93164 17.2832 4.08594 17.1152 4.39453V9H15.457V2.66016H17.0098ZM24.1641 5.625C24.1641 4.66406 24.3906 3.91016 24.8438 3.36328C25.2969 2.81641 25.9238 2.54297 26.7246 2.54297C27.5332 2.54297 28.1641 2.81641 28.6172 3.36328C29.0703 3.91016 29.2969 4.66797 29.2969 5.63672V6.04102C29.2969 7.00586 29.0723 7.75977 28.623 8.30273C28.1738 8.8457 27.5449 9.11719 26.7363 9.11719C25.9238 9.11719 25.291 8.8457 24.8379 8.30273C24.3887 7.75586 24.1641 6.99805 24.1641 6.0293V5.625ZM25.8281 6.04102C25.8281 7.17383 26.1309 7.74023 26.7363 7.74023C27.2949 7.74023 27.5957 7.26758 27.6387 6.32227L27.6445 5.625C27.6445 5.04688 27.5645 4.61914 27.4043 4.3418C27.2441 4.06055 27.0176 3.91992 26.7246 3.91992C26.4434 3.91992 26.2227 4.06055 26.0625 4.3418C25.9062 4.61914 25.8281 5.04688 25.8281 5.625V6.04102ZM33.4629 4.25977L32.9121 4.21289C32.459 4.21289 32.1523 4.41211 31.9922 4.81055V9H30.3281V2.66016H31.8926L31.9395 3.3457C32.2012 2.81055 32.5625 2.54297 33.0234 2.54297C33.2109 2.54297 33.3633 2.56836 33.4805 2.61914L33.4629 4.25977ZM36.0586 9H34.3945V2.66016H36.0586V9ZM34.3184 1.01953C34.3184 0.761719 34.4004 0.550781 34.5645 0.386719C34.7285 0.222656 34.9473 0.140625 35.2207 0.140625C35.4941 0.140625 35.7129 0.222656 35.877 0.386719C36.041 0.550781 36.123 0.761719 36.123 1.01953C36.123 1.27344 36.041 1.48437 35.877 1.65234C35.7168 1.82031 35.498 1.9043 35.2207 1.9043C34.9434 1.9043 34.7227 1.82031 34.5586 1.65234C34.3984 1.48437 34.3184 1.27344 34.3184 1.01953ZM39.1758 7.62305H41.6836V9H37.207V7.96289L39.6562 4.04297H37.2656V2.66016H41.6484V3.66211L39.1758 7.62305ZM45.2461 9.11719C44.3945 9.11719 43.7305 8.86328 43.2539 8.35547C42.7773 7.84766 42.5391 7.12109 42.5391 6.17578V5.67188C42.5391 4.67188 42.7578 3.90039 43.1953 3.35742C43.6328 2.81445 44.2598 2.54297 45.0762 2.54297C45.873 2.54297 46.4727 2.79883 46.875 3.31055C47.2773 3.81836 47.4824 4.57227 47.4902 5.57227V6.38672H44.1914C44.2148 6.85547 44.3184 7.19922 44.502 7.41797C44.6855 7.63281 44.9688 7.74023 45.3516 7.74023C45.9062 7.74023 46.3691 7.55078 46.7402 7.17188L47.3906 8.17383C47.1875 8.45508 46.8926 8.68359 46.5059 8.85938C46.1191 9.03125 45.6992 9.11719 45.2461 9.11719ZM44.2031 5.22656H45.8613V5.07422C45.8535 4.69531 45.791 4.4082 45.6738 4.21289C45.5566 4.01758 45.3535 3.91992 45.0645 3.91992C44.7754 3.91992 44.5645 4.02344 44.4316 4.23047C44.3027 4.4375 44.2266 4.76953 44.2031 5.22656ZM48.5625 8.15625C48.5625 7.89062 48.6504 7.67188 48.8262 7.5C49.0059 7.32812 49.2383 7.24219 49.5234 7.24219C49.8008 7.24219 50.0312 7.32812 50.2148 7.5C50.3984 7.66797 50.4902 7.88672 50.4902 8.15625C50.4902 8.42969 50.3965 8.65039 50.209 8.81836C50.0254 8.98242 49.7969 9.06445 49.5234 9.06445C49.2461 9.06445 49.0156 8.98047 48.832 8.8125C48.6523 8.64453 48.5625 8.42578 48.5625 8.15625ZM53.6602 9H51.9961V2.66016H53.6602V9ZM51.9199 1.01953C51.9199 0.761719 52.002 0.550781 52.166 0.386719C52.3301 0.222656 52.5488 0.140625 52.8223 0.140625C53.0957 0.140625 53.3145 0.222656 53.4785 0.386719C53.6426 0.550781 53.7246 0.761719 53.7246 1.01953C53.7246 1.27344 53.6426 1.48437 53.4785 1.65234C53.3184 1.82031 53.0996 1.9043 52.8223 1.9043C52.5449 1.9043 52.3242 1.82031 52.1602 1.65234C52 1.48437 51.9199 1.27344 51.9199 1.01953ZM54.75 5.625C54.75 4.66406 54.9766 3.91016 55.4297 3.36328C55.8828 2.81641 56.5098 2.54297 57.3105 2.54297C58.1191 2.54297 58.75 2.81641 59.2031 3.36328C59.6562 3.91016 59.8828 4.66797 59.8828 5.63672V6.04102C59.8828 7.00586 59.6582 7.75977 59.209 8.30273C58.7598 8.8457 58.1309 9.11719 57.3223 9.11719C56.5098 9.11719 55.877 8.8457 55.4238 8.30273C54.9746 7.75586 54.75 6.99805 54.75 6.0293V5.625ZM56.4141 6.04102C56.4141 7.17383 56.7168 7.74023 57.3223 7.74023C57.8809 7.74023 58.1816 7.26758 58.2246 6.32227L58.2305 5.625C58.2305 5.04688 58.1504 4.61914 57.9902 4.3418C57.8301 4.06055 57.6035 3.91992 57.3105 3.91992C57.0293 3.91992 56.8086 4.06055 56.6484 4.3418C56.4922 4.61914 56.4141 5.04688 56.4141 5.625V6.04102Z" fill="white"/>
</svg>
