<svg width="20" height="20" viewBox="0 0 20 20" fill="none" xmlns="http://www.w3.org/2000/svg">
<path d="M6 15C5.45 15 5 14.55 5 14V9C5 8.45 5.45 8 6 8C6.55 8 7 8.45 7 9V14C7 14.55 6.55 15 6 15ZM10 15C9.45 15 9 14.55 9 14V6C9 5.45 9.45 5 10 5C10.55 5 11 5.45 11 6V14C11 14.55 10.55 15 10 15ZM14 15C13.45 15 13 14.55 13 14V12C13 11.45 13.45 11 14 11C14.55 11 15 11.45 15 12V14C15 14.55 14.55 15 14 15ZM16 17H4C3.45 17 3 16.55 3 16V4C3 3.45 3.45 3 4 3H16C16.55 3 17 3.45 17 4V16C17 16.55 16.55 17 16 17ZM17 1H3C1.9 1 1 1.9 1 3V17C1 18.1 1.9 19 3 19H17C18.1 19 19 18.1 19 17V3C19 1.9 18.1 1 17 1Z" fill="black"/>
</svg>
