<svg width="20" height="20" viewBox="0 0 20 20" fill="none" xmlns="http://www.w3.org/2000/svg">
<path d="M16 10V16H4V10C4 8.5 2 8.5 2 10V16C2 17.1046 2.89543 18 4 18H16C17.1046 18 18 17.1046 18 16V10C18 8.5 16 8.5 16 10Z" fill="black"/>
<path fill-rule="evenodd" clip-rule="evenodd" d="M9.29289 2.29289C9.68342 1.90237 10.3166 1.90237 10.7071 2.29289L13.7071 5.29289C14.0976 5.68342 14.0976 6.31658 13.7071 6.70711C13.3166 7.09763 12.6834 7.09763 12.2929 6.70711L11 5.41421V11C11 11.5523 10.5523 12 10 12C9.44772 12 9 11.5523 9 11V5.41421L7.70711 6.70711C7.31658 7.09763 6.68342 7.09763 6.29289 6.70711C5.90237 6.31658 5.90237 5.68342 6.29289 5.29289L9.29289 2.29289Z" fill="black"/>
</svg>
